# xmcd
#
# Track frame offsets:
#	150
#	12473
#	28926
#	42749
#	58963
#	76010
#	91705
#	107238
#	121422
#	136593
#	150210
#	168360
#	182454
#	199178
#	210800
#	230697
#	247174
#	263762
#	278808
#	296912
#	311310
#
# Disc length: 4324 seconds
#
# Revision: 0
# Processed by: cddbd v1.5.2PL0 Copyright (c) Steve Scherf et al.
# Submitted via: EZCDAudioConverter 3.1.0.1
#
DISCID=1f10e215
DTITLE=Nu Country Traxx Volume 215 US
DYEAR=2017
DGENRE=country
TTITLE0=Sam Hunt - Body Like A Back Road
TTITLE1=Brett Eldredge - Somethin' I'm Good At
TTITLE2=Keith Urban ft. Carrie Underwood - The Fighter
TTITLE3=Blake Shelton - Every Time I Hear That Song
TTITLE4=Zac Brown Band - My Old Man
TTITLE5=Dan and Shay - When I Pray For You
TTITLE6=Dustin Lynch - Small Town Boy
TTITLE7=Kane Brown - What Ifs
TTITLE8=Big and Rich - California
TTITLE9=Carly Pearce - Every Little Thing
TTITLE10=Frankie Ballard - You'll Accomp'ny Me
TTITLE11=Trace Adkins - Watered Down
TTITLE12=LANco - Greatest Love Story
TTITLE13=Kip Moore - More Girls Like You
TTITLE14=Sarah Dunn Band - Figure it Out
TTITLE15=Kaitlyn Baker - To Pieces
TTITLE16=Midland - Drinkin' Problem
TTITLE17=Aubrie Sellers - Liar Liar
TTITLE18=Reba McEntire - Back To God
TTITLE19=Rick Trevino - Cowboys Like Me
TTITLE20=Jess Moskaluke - Drive Me Away
EXTD=
EXTT0=
EXTT1=
EXTT2=
EXTT3=
EXTT4=
EXTT5=
EXTT6=
EXTT7=
EXTT8=
EXTT9=
EXTT10=
EXTT11=
EXTT12=
EXTT13=
EXTT14=
EXTT15=
EXTT16=
EXTT17=
EXTT18=
EXTT19=
EXTT20=
PLAYORDER=
